Coordinates
version=1
nRows=7
nColumns=63
inDegrees=yes

Units are S.I. units (second, meters, Newtons, ...)
If the header above contains a line with 'inDegrees', this indicates whether rotational values are in degrees (yes) or radians (no).

endheader
time	pelvis_tilt	pelvis_list	pelvis_rotation	pelvis_tx	pelvis_ty	pelvis_tz	hip_flexion_r	hip_adduction_r	hip_rotation_r	knee_angle_r	knee_angle_r_beta	ankle_angle_r	subtalar_angle_r	mtp_angle_r	hip_flexion_l	hip_adduction_l	hip_rotation_l	knee_angle_l	knee_angle_l_beta	ankle_angle_l	subtalar_angle_l	mtp_angle_l	L5_S1_Flex_Ext	L5_S1_Lat_Bending	L5_S1_axial_rotation	L4_L5_Flex_Ext	L4_L5_Lat_Bending	L4_L5_axial_rotation	L3_L4_Flex_Ext	L3_L4_Lat_Bending	L3_L4_axial_rotation	L2_L3_Flex_Ext	L2_L3_Lat_Bending	L2_L3_axial_rotation	L1_L2_Flex_Ext	L1_L2_Lat_Bending	L1_L2_axial_rotation	L1_T12_Flex_Ext	L1_T12_Lat_Bending	L1_T12_axial_rotation	Abs_r3	Abs_r2	Abs_r1	Abs_t1	Abs_t2	neck_flexion	neck_bending	neck_rotation	arm_flex_r	arm_add_r	arm_rot_r	elbow_flex_r	pro_sup_r	wrist_flex_r	wrist_dev_r	arm_flex_l	arm_add_l	arm_rot_l	elbow_flex_l	pro_sup_l	wrist_flex_l	wrist_dev_l
      2.65217391	     -5.05503445	     -8.39884401	     91.27101421	      0.10816454	      0.51997957	      0.77639613	     10.25022972	      2.56883616	      3.04394986	     14.56859000	      0.25426986	     29.14351662	     -7.46472248	      0.00000000	      8.37924174	      1.08806675	     -9.61297766	     12.93504704	      0.22575916	     31.01481769	     -4.73341644	      0.00000000	      0.02472269	      0.49576426	     -0.74754941	      0.04591251	      0.65936647	     -0.79427125	      0.04061691	      1.20540123	     -0.79427125	      0.02825556	      1.20540123	     -0.65410573	      0.02295749	      1.01096248	     -0.60738390	      0.01412655	      0.76793884	     -0.56066206	      0.17659171	      5.60818448	     -4.15764555	      0.00000000	      0.00000000	      9.45033296	     -3.72146123	      6.16986921	      8.58851207	    -13.08155807	     78.92688231	     17.63063954	     75.49144524	    -17.49614576	    -12.67954747	     -9.49378437	    -13.19740458	     25.42104799	     45.47025699	     88.10849971	     -8.66681847	     -4.88468860
      2.67391304	     -4.93897864	     -8.47183181	     91.14794406	      0.10781247	      0.51977036	      0.77643865	     10.46820865	      2.72883015	      3.48675798	     14.82169522	      0.25868738	     29.11277420	     -7.85432576	      0.00000000	      8.38274239	      0.94445728	    -10.13697360	     12.84009404	      0.22410192	     31.14649763	     -4.10492329	      0.00000000	      0.02368277	      0.51561548	     -0.68971578	      0.04398127	      0.68576859	     -0.73282302	      0.03890842	      1.25366748	     -0.73282302	      0.02706703	      1.25366748	     -0.60350131	      0.02199182	      1.05144309	     -0.56039407	      0.01353233	      0.79868838	     -0.51728684	      0.16916363	      5.83274546	     -3.83599228	      0.00000000	      0.00000000	      9.86315373	     -3.69627255	      6.33626689	      7.26959570	    -13.63939686	     69.49289090	     19.33898665	     81.19702881	    -15.50328605	    -11.48406305	     -9.20150675	    -13.07172719	     25.86746905	     45.05925760	     88.05038342	     -8.74499817	     -5.22594270
      2.69565217	     -4.91056474	     -8.52523724	     91.21796137	      0.10745321	      0.51963632	      0.77670227	     10.66236193	      2.70343414	      3.20491787	     15.06763469	      0.26297984	     29.25719858	     -7.45006613	      0.00000000	      8.41336158	      0.92478617	    -10.24461531	     12.78628561	      0.22316278	     31.14530778	     -3.81640247	      0.00000000	      0.01765287	      0.51996604	     -0.69599173	      0.03278315	      0.69155483	     -0.73949121	      0.02900190	      1.26424543	     -0.73949121	      0.02017547	      1.26424543	     -0.60899276	      0.01639246	      1.06031475	     -0.56549328	      0.01008685	      0.80542739	     -0.52199380	      0.12609269	      5.88195982	     -3.87089720	      0.00000000	      0.00000000	     10.14999520	     -3.52820505	      6.58052174	      7.20127225	    -13.71497623	     68.83628817	     19.56746695	     79.49654249	    -14.52090348	    -11.70431517	     -9.02958145	    -12.95918233	     25.79265062	     44.65480530	     88.08537166	     -8.27417546	     -5.36743676
      2.71739130	     -4.95118197	     -8.59742516	     91.14137279	      0.10729673	      0.51932126	      0.77704670	     10.91929317	      2.73922204	      3.87663321	     15.39461734	      0.26868676	     29.13873920	     -8.31115130	      0.00000000	      8.44842502	      0.98303588	    -10.29025006	     12.69086674	      0.22149741	     31.10630834	     -3.83534585	      0.00000000	      0.00909320	      0.51363571	     -0.68635926	      0.01688698	      0.68313550	     -0.72925671	      0.01493922	      1.24885387	     -0.72925671	      0.01039262	      1.24885387	     -0.60056435	      0.00844395	      1.04740595	     -0.55766690	      0.00519586	      0.79562172	     -0.51476944	      0.06495183	      5.81034992	     -3.81732428	      0.00000000	      0.00000000	     10.53512828	     -3.22263550	      6.82681300	      7.04324726	    -13.82054584	     67.66416057	     20.02416803	     78.00258069	    -13.41998650	    -11.35813503	     -9.04498423	    -12.87286148	     25.27289977	     44.53154286	     88.17446878	     -7.53094329	     -4.92508760
      2.73913043	     -4.91677284	     -8.72029125	     91.10950121	      0.10674557	      0.51882174	      0.77755359	     11.23427490	      2.71434902	      3.65288455	     15.70265318	      0.27406300	     29.29305883	     -7.94310353	      0.00000000	      8.59477381	      0.93795467	    -10.62389384	     12.67572182	      0.22123308	     31.29028650	     -3.31860832	      0.00000000	     -0.00191720	      0.51979816	     -0.68308093	     -0.00356043	      0.69133156	     -0.72577349	     -0.00314976	      1.26383725	     -0.72577349	     -0.00219117	      1.26383725	     -0.59769581	     -0.00178031	      1.05997241	     -0.55500326	     -0.00109549	      0.80516735	     -0.51231070	     -0.01369435	      5.88006077	     -3.79909121	      0.00000000	      0.00000000	     11.20885486	     -2.86926621	      7.32197328	      6.03667270	    -13.96197407	     60.97300988	     21.06768442	     81.58353798	    -11.44903221	     -9.83437338	     -9.17660704	    -12.73181821	     24.65999480	     44.61309844	     88.21457239	     -7.23485397	     -4.31390145
      2.76086957	     -4.94872909	     -8.87616740	     90.98941075	      0.10630344	      0.51823777	      0.77824466	     11.63458063	      2.64672682	      3.58330617	     16.07460878	      0.28055485	     29.39726599	     -7.75374292	      0.00000000	      8.77520990	      0.99054428	    -10.67790094	     12.58823561	      0.21970616	     31.40449058	     -3.29541362	      0.00000000	     -0.01148312	      0.51511353	     -0.71193339	     -0.02132531	      0.68510099	     -0.75642923	     -0.01886562	      1.25244703	     -0.75642923	     -0.01312406	      1.25244703	     -0.62294172	     -0.01066323	      1.05041951	     -0.57844588	     -0.00656146	      0.79791085	     -0.53395004	     -0.08202280	      5.82706725	     -3.95955995	      0.00000000	      0.00000000	     11.88531571	     -2.41593572	      7.87710409	      5.96585597	    -13.97860328	     60.12866949	     21.28718596	     81.28475634	    -10.88854396	     -9.13312768	     -9.64867928	    -12.47033477	     23.05962880	     45.00494564	     88.33170436	     -6.43360916	     -3.11683538
      2.78260870	     -5.04232257	     -9.03868226	     90.74698741	      0.10613257	      0.51757147	      0.77927095	     12.12101786	      2.54902309	      3.62396565	     16.53645790	      0.28861564	     29.53831290	     -7.55720705	      0.00000000	      9.03968287	      1.06990565	    -10.79254548	     12.60582773	      0.22001320	     31.57743376	     -3.36283449	      0.00000000	     -0.02348424	      0.50003609	     -0.72477869	     -0.04361258	      0.66504800	     -0.77007736	     -0.03858226	      1.21578774	     -0.77007736	     -0.02684014	      1.21578774	     -0.63418135	     -0.02180747	      1.01967359	     -0.58888269	     -0.01341890	      0.77455590	     -0.54358402	     -0.16774558	      5.65650822	     -4.03100164	      0.00000000	      0.00000000	     12.51142473	     -1.91972626	      8.24827249	      6.06253654	    -13.90331770	     59.95262560	     21.30263257	     81.70062479	    -10.89823243	     -8.61612541	    -10.12070276	    -12.29212873	     21.70139390	     45.48636616	     88.30510002	     -6.49539603	     -2.23732303
